<?xml version="1.0" encoding="UTF-8" standalone="no"?>
<!DOCTYPE svg PUBLIC "-//W3C//DTD SVG 1.1//EN" "http://www.w3.org/Graphics/SVG/1.1/DTD/svg11.dtd">
<!-- Created with Vectornator (http://vectornator.io/) -->
<svg height="100%" stroke-miterlimit="10" style="fill-rule:nonzero;clip-rule:evenodd;stroke-linecap:round;stroke-linejoin:round;" version="1.1" viewBox="0 0 512 512" width="100%" xml:space="preserve" xmlns="http://www.w3.org/2000/svg" xmlns:vectornator="http://vectornator.io" xmlns:xlink="http://www.w3.org/1999/xlink">
<defs/>
<g id="Katman-1" vectornator:layerName="Katman 1">
<g opacity="1">
<path d="M0 0C0 255.875 0 255.875 0 511.75C255.875 511.75 255.875 511.75 511.75 511.75C511.75 255.875 511.75 255.875 511.75 0C255.875 0 255.875 0 0 0Z" fill="#000000" fill-rule="nonzero" opacity="1" stroke="none"/>
<path d="M417.5 136C414.995 136.786 418.673 145.033 419 146.75C420.448 154.351 419.525 161.986 420.25 170.25C420.291 170.72 421.153 170.789 421.25 171.25C421.508 172.473 421.396 173.759 421.25 175C420.576 180.727 411.694 179.118 408.75 180.25C403.87 182.127 399.016 188.094 398.5 193.25C397.794 200.311 401.614 207.662 408 210.5C411.487 212.05 412.981 210.679 416 214C418.56 216.816 416.122 222.094 415.25 225C412.876 232.915 410.931 240.139 407.25 247.5C405.729 250.541 405.61 252.629 402.75 255.25C398.398 259.24 394.606 254.452 391 253.25C383.683 250.811 375.79 252.634 369.25 255.25C364.25 257.25 356.837 267.91 356.25 273C355.566 278.929 356.091 286.477 347.5 285.25C344.365 284.802 342.576 281.128 340.5 279C337.496 275.921 334.582 272.751 331.5 269.75C327.57 265.923 320.712 262.111 315.75 260.25C313.496 259.405 310.912 259.211 308.75 258.25C308.319 258.059 308.214 257.331 307.75 257.25C300.771 256.036 293.584 257 286.5 257C284.998 257 283.465 256.917 282 257.25C281.54 257.354 281.451 258.111 281 258.25C271.263 261.246 262.398 265.093 254.75 273.25C251.976 276.208 248.785 280.668 247.25 284.25C246.543 285.9 247.914 284.628 247 286C246.068 287.399 244.562 290.018 244.25 291.5C243.117 296.883 244 302.499 244 308C244 309.336 243.926 310.704 244.25 312C244.458 312.832 245.586 314.171 246 315C248.183 319.367 249.482 323.415 252.75 327.5C256.968 332.772 262.355 334.868 268 336.75C268.746 336.999 268.261 337.71 269.25 337.75C273.164 337.907 277.084 337.816 281 337.75C282.003 337.733 283.042 337.799 284 337.5C288.326 336.148 293.062 332.438 296.5 329C304.057 321.443 302.623 303.699 291.5 299.25C289.135 298.304 285.255 299.41 283 298C280.491 296.432 277.351 290.703 279.75 287.75C285.037 281.242 293.277 284.638 299 287.5C306.582 291.291 313.014 299.308 315 307.25C316.172 311.94 315.25 316.916 315.25 321.75C315.25 322.991 314.617 326.015 314 327.25C308.779 337.693 302.766 344.529 291.75 349.25C289.971 350.012 287.624 351.649 285.75 352C280.344 353.014 274.751 352.25 269.25 352.25C268.08 352.25 266.889 352.268 265.75 352C259.344 350.493 254.097 346.481 248.5 342.75C245.388 340.675 235.337 330.77 234.5 325.75C233.979 322.624 231.815 317.695 230.75 314.5C230.601 314.053 229.838 313.963 229.75 313.5C228.549 307.196 229.5 300.667 229.5 294.25C229.5 292.748 229.417 291.215 229.75 289.75C229.854 289.29 230.589 289.193 230.75 288.75C231.808 285.839 231.949 281.951 233.75 279.25C234.189 278.591 235.5 276.573 235.5 275.75C235.5 266.782 230.62 259.277 223.25 253.75C221.036 252.09 212.671 248.462 210.25 249.5C208.036 250.449 206.192 253.043 204.25 254.5C199.916 257.75 193.993 260.128 189 262C185.993 263.128 182.809 262.728 179.5 263.25C159.068 266.476 139.813 257.048 129.5 239C127.348 235.234 126.667 232.031 125.5 227.75C125.252 226.841 124.539 227.697 124.5 226.5C123.858 206.604 127.752 194.699 144.75 184.5C149.148 181.861 163.458 177.646 166 184C167.537 187.843 166.678 193.724 162 195C159.828 195.592 157.465 194.847 155.25 195.25C153.105 195.64 149.71 197.711 148 199.25C139.886 206.553 138.12 213.809 139 225.25C139.036 225.72 139.825 225.812 140 226.25C141.159 229.147 141.467 231.325 143.25 234C151.597 246.521 164.965 251.172 179.5 248.75C182.092 248.318 184.623 248.556 187 247.5C197.543 242.814 212.008 229.689 213.5 217.75C213.673 216.366 215.292 214.945 215.5 213.75C216.657 207.099 215.75 200.251 215.75 193.5C215.75 191.831 215.84 190.134 215.5 188.5C215.353 187.793 214.172 186.203 213.75 185.5C212.992 184.237 213.196 182.143 212.5 180.75C211.198 178.147 209.561 175.652 208.5 173C207.723 171.058 204.781 168.031 203.25 166.5C196.224 159.474 189.667 152.072 180.75 148.25C175.707 146.089 170.418 144.973 165.25 143.25C164.803 143.101 164.715 142.324 164.25 142.25C156.185 140.96 147.917 142 139.75 142C137.748 142 135.721 141.898 133.75 142.25C132.885 142.404 127.983 144.41 127 145C124.986 146.208 121.922 146.164 119.75 147.25C114.141 150.055 107.152 153.315 102.25 157.75C90.9189 168.002 80.9149 179.532 75.25 192.75C73.7861 196.166 72.4165 200.001 71.25 203.5C70.7476 205.007 71.7165 204.746 71 206C69.7872 208.122 69.9182 210.411 69.25 212.75C69.1205 213.203 68.3245 213.285 68.25 213.75C67.3678 219.264 68.3483 224.927 68 230.5C67.4869 238.709 67.6191 253.168 68.25 262C68.2836 262.47 69.1477 262.54 69.25 263C69.974 266.258 69.6692 267.709 70.25 271C70.5332 272.605 72.1127 275.102 72.25 276.75C72.7115 282.288 75.0244 287.561 77 292.5C78.0936 295.234 78.0437 298.286 79.25 301C83.5703 310.721 87.7494 320.582 93.25 329.75C101.726 343.877 112.756 357.506 124.75 369.5C129.806 374.556 136.215 378.72 141.5 383.25C147.713 388.576 154.623 392.713 161.25 396.5C163.509 397.791 165.573 400 168.5 400C219.917 400 271.334 399.916 322.75 399.75C326.538 399.738 334.093 398.183 337.5 395.75C338.346 395.146 338.999 394.179 340 393.75C355.02 387.313 369.763 373.957 382.25 362.25C396.534 348.859 408.539 332.922 416.75 316.5C419.375 311.25 423.648 306.06 424.75 300C425.341 296.749 429.196 291.912 430.25 288.75C430.514 287.959 430.048 287.058 430.25 286.25C431.777 280.143 434.303 273.94 436 268C437.372 263.199 438.044 257.282 439 252.5C439.908 247.96 440.25 242.643 440.25 238C440.25 227.833 440.25 217.667 440.25 207.5C440.25 207.156 440 206.844 440 206.5C440 203.715 438.918 199.322 439.25 197C439.535 195.008 440.112 190.402 439.5 187.75C438.742 184.466 436.908 180.934 435.75 177.75C435.35 176.651 435.934 175.336 435.5 174.25C432.48 166.7 429.986 158.56 425.75 151.5C423.983 148.555 421.05 143.499 419.75 140.25C419.227 138.943 418.99 135.532 417.5 136Z" fill="#bb95e2" fill-rule="nonzero" opacity="1" stroke="none"/>
<path d="M121 90.5C117.276 94.2237 112.474 99.0263 108.75 102.75C114.902 108.902 110.917 111.944 106.75 117.5C102.608 123.023 98.276 128.448 95.25 134.5C94.3893 136.221 92.6992 137.703 92.25 139.5C91.6579 141.869 84.6017 149.926 87.75 151.5C124.891 114.359 194.251 119.752 221.25 167C223.415 170.789 225.039 174.578 227 178.5C227.818 180.135 227.493 182.298 228.25 184C228.699 185.009 229.823 186.775 230 187.75C231.327 195.047 230.25 202.583 230.25 210C230.25 214.984 228.266 218.926 227.25 223.5C226.879 225.171 220.982 235.875 221.25 236.5C221.677 237.495 231.315 241.219 233 242.75C236.12 245.586 239.327 248.483 242 251.75C244.259 254.511 245.076 257.533 247.25 260.25C256.089 252.393 266.482 246.687 277.25 243.75C278.94 243.289 280.819 243.994 282.5 243.5C282.952 243.367 283.029 242.52 283.5 242.5C290.826 242.181 298.174 242.181 305.5 242.5C305.971 242.52 306.041 243.392 306.5 243.5C309.29 244.157 309.519 242.923 312 243.75C319.534 246.261 326.804 249.332 333.75 253.5C337.459 255.726 340.563 259.172 344 261.75C345.092 262.569 347.94 256.183 348.5 255.25C351.38 250.449 357.093 245.203 362 242.75C364.9 241.3 368.199 239.767 371.25 238.75C372.912 238.196 374.775 238.804 376.5 238.5C378.241 238.193 382.104 237.17 384.25 237.5C385.733 237.728 394.359 239.668 395.25 239C396.353 238.172 397.282 234.808 397.5 233.5C397.79 231.762 401.485 224.544 401 223.25C400.562 222.082 396.936 220.468 396 220C393.838 218.919 392.459 216.709 390.75 215C387.767 212.017 386.107 207.369 384.75 203.75C383.023 199.146 384.5 193.917 384.5 189C384.5 183.402 393.025 172.237 398 169.75C400.28 168.61 404.205 167.795 406 166C405.096 164.192 405.937 154.124 405.5 151.5C405.254 150.022 403.614 147.353 403.5 145.75C403.137 140.674 401.724 135.355 399.75 130.75C399.355 129.828 399.843 128.693 399.5 127.75C397.731 122.885 396.096 117.693 393.75 113C391.73 108.96 390.399 101.926 387.5 98.5C382.818 92.9671 376.736 88.7667 371.25 84.5C354.837 71.7345 337.836 62.2198 319.25 55.25C316.394 54.179 313.11 53.1081 310.25 52.25C307.899 51.5446 309.157 52.9589 307 52C303.801 50.5781 300.38 49.5093 296.75 49.25C295.694 49.1746 296.836 48.5005 295.5 48.25C293.058 47.7921 289.155 49.4048 287.25 47.5C287.5 47.125 287.5 47.125 287.75 46.75C285.965 44.9653 278.029 46.7128 274.75 46C274.289 45.8999 274.221 45.0135 273.75 45C262.421 44.6763 251.079 44.6763 239.75 45C239.279 45.0135 239.217 45.9356 238.75 46C232.459 46.8677 226.221 46.1126 220.25 47.25C219.709 47.3531 218.61 48.8779 218 49C215.084 49.5832 215.223 48.4121 212.5 49.25C193.781 55.0098 175.884 61.4594 158.75 71.25C152.145 75.0243 145.098 80.1679 139 85.25C133.443 89.8805 127.927 96.4375 121 90.5Z" fill="#6f7cd1" fill-rule="nonzero" opacity="1" stroke="none"/>
<path d="M406.25 421.75C305.596 420.181 204.916 421.585 104.25 422C103.189 422.004 100.967 423.844 99.75 424.25C94.7833 425.906 88.7871 433.102 87.5 438.25C86.9682 440.377 87.4766 441.526 87 443.75C86.6583 445.345 82.9412 451.046 85.75 452.25C86.0564 452.381 86.4167 452.251 86.75 452.25C113.417 452.168 140.083 452 166.75 452C173.555 452 175.32 457.149 174.25 462.5C174.017 463.667 170.187 466.987 168.5 467C135.834 467.248 103.167 466.919 70.5 467C68.2327 467.006 66.9412 467.985 65.25 469C55.9199 474.598 54.4969 478.262 52 488.25C51.6127 489.799 47.8021 495.987 50.75 497.25C51.0564 497.381 51.4167 497.25 51.75 497.25C187.75 497.167 323.75 497 459.75 497C460.48 497 461.421 497.816 461.75 496.5C462.447 493.712 460.743 490.067 459.75 487.75C458.939 485.857 459.36 483.436 458.5 481.5C455.746 475.302 448.818 467.257 441.5 467.25C359.917 467.167 278.333 467.332 196.75 467C192.339 466.982 190.063 461.213 190.5 457.5C190.925 453.887 194.995 452.257 198.25 452.25C273.667 452.084 349.083 452 424.5 452C425.139 452 426.485 452.823 426.75 451.5C427.066 449.921 425.186 441.807 424.5 439.75C421.79 431.621 415.384 421.892 406.25 421.75Z" fill="#f8e07a" fill-rule="nonzero" opacity="1" stroke="none"/>
<path d="M149 406.5C146.934 403.745 138.721 399.236 135.25 397.5C134.378 397.064 133.87 395.83 133 395.25C128.016 391.927 122.979 387.725 118.5 383.5C114.514 379.739 110.625 375.875 106.75 372C101.18 366.43 96.5011 359.551 92 353.25C73.9188 327.936 59.9313 299.541 56.25 268.25C56.0523 266.57 55.0661 269.305 54.75 267.25C54.08 262.895 53.7738 258.179 53.75 253.75C53.6783 240.417 53.5 227.084 53.5 213.75C53.5 211.498 53.3915 209.223 53.75 207C53.8251 206.535 54.6833 206.467 54.75 206C55.0328 204.02 54.5291 201.988 54.75 200C55.201 195.941 56.9993 190.002 58.5 186C59.3489 183.736 58.8071 181.013 59.75 178.75C61.0362 175.663 62.2804 172.252 63.5 169C64.1655 167.225 63.8866 164.977 64.75 163.25C67.589 157.572 69.6464 151.207 72.5 145.5C75.4327 139.635 78.8139 133.872 81.75 128C85.3279 120.844 91.7026 115.345 95.25 108.25C97.2441 104.262 102.145 100.988 106.5 101.5C107.713 101.643 108.503 103.605 110 102.75C114.554 100.148 117.425 95.3371 121 91.5C121.761 90.6829 119.557 88.8286 119.5 88.5C119.211 86.8392 119.176 83.5276 120.5 82C127.192 74.2781 137.428 66.911 146.25 62.5C149.871 60.6896 153.964 57.7145 157.25 55.25C158.439 54.3584 160.661 54.1693 162 53.5C164.127 52.4363 166.166 51.0004 168.25 49.75C173.237 46.7581 179.769 44.6925 185.25 42.5C186.711 41.9157 188.463 42.1833 190 41.5C196.433 38.6408 203.886 36.2208 210.75 34.75C213.395 34.1832 213.296 35.3178 215.75 34.5C219.508 33.2472 220.27 33.5292 224.75 32.75C225.214 32.6692 225.282 31.8103 225.75 31.75C227.982 31.4621 230.268 32.0379 232.5 31.75C232.968 31.6897 233.031 30.7981 233.5 30.75C245.355 29.5341 257.333 30.5 269.25 30.5C275.007 30.5 286.71 31.1256 292.25 33.5C293.631 34.0918 295.288 33.4059 296.75 33.75C300.78 34.6983 305.33 35.8201 309.25 37.5C311.166 38.3211 313.563 37.889 315.5 38.75C319.236 40.4107 323.411 42.0602 327.25 43.5C329.498 44.3431 332.467 44.3949 334.5 45.75C339.393 49.0121 345.664 50.9569 350.75 53.5C366.455 61.3526 382.205 72.955 395.25 86C400.264 91.0135 405.872 96.3014 411 101.75C416.083 107.151 419.47 113.793 423.75 119.5C425.218 121.457 428.732 124.661 429.25 127.25C429.644 129.22 431.336 130.698 432.5 132.25C433.335 133.364 433.54 135.507 434.25 136.75C435.063 138.172 436.265 139.28 437 140.75C440.678 148.106 444.609 156.328 447.25 164.25C449.229 170.186 451.194 176.481 453 182.5C453.432 183.939 452.837 185.555 453.25 187C453.942 189.421 455.618 192.452 456 195C456.21 196.401 455.735 197.858 456 199.25C456.088 199.713 456.945 199.782 457 200.25C457.292 202.733 456.844 205.255 457 207.75C457.102 209.384 457.989 211.355 458 213.25C458.079 226.583 458.494 239.919 458.25 253.25C458.241 253.721 457.307 253.782 457.25 254.25C456.759 258.305 457.833 262.502 457 266.5C456.904 266.961 456.088 267.037 456 267.5C455.735 268.892 456.21 270.349 456 271.75C455.383 275.866 453.735 281.04 452.25 285C450.438 289.831 450.134 295.041 448.25 299.75C444.442 309.27 440.559 318.632 436 327.75C434.103 331.544 429.009 329.699 426 330C424.897 330.11 424.967 332.167 424.5 332.75C422.044 335.819 420.06 339.38 418.25 343C426.13 350.88 416.268 357.56 411.25 364.25C403.115 375.097 392.277 385.259 381.5 393.5C377.334 396.686 372.702 399.661 368.25 403C366.589 404.246 364.241 404.759 362.75 406.25C363 406.583 363.084 407.233 363.5 407.25C371.327 407.573 379.167 407.25 387 407.25C391.424 407.25 397.348 399.888 400.25 397.25C422.385 377.128 440.124 354.503 452.5 329.75C456.569 321.612 460.604 312.437 463.5 303.75C464.451 300.898 464.554 296.94 465.75 294.25C467.704 289.854 469.121 285.175 469.5 280.25C469.585 279.142 470.231 280.435 470.5 279C471.133 275.626 470.798 274.26 471.5 270.75C471.592 270.288 472.438 270.217 472.5 269.75C472.786 267.602 472.452 265.416 472.5 263.25C472.535 261.665 472.413 260.049 472.75 258.5C472.85 258.039 473.74 257.971 473.75 257.5C474.076 242.587 473.818 227.667 473.75 212.75C473.734 209.332 473.877 205.897 473.5 202.5C473.448 202.031 472.588 201.963 472.5 201.5C472.235 200.108 472.71 198.651 472.5 197.25C472.436 196.824 471.314 195.76 471.25 195.25C470.424 188.645 469.455 182.355 467.5 176C467.207 175.049 466.06 173.931 465.75 173C465.354 171.812 465.896 170.438 465.5 169.25C464.221 165.412 462.801 161.402 461.5 157.5C459.626 151.877 456.804 145.591 453.75 140.5C450.587 135.228 448.608 129.19 445.5 123.75C438.501 111.501 429.118 98.0924 419 87.5C406.776 74.7029 393.577 61.008 378.25 52.25C376.451 51.2222 374.947 49.2236 373 48.25C366.378 44.9392 360.116 40.558 353.5 37.25C348.981 34.9907 343.978 33.4891 339.5 31.25C334.696 28.8481 337.709 22.4796 335.25 21.25C332.715 19.9824 329.63 20.0958 327 19C324.817 18.0902 323.158 16.5153 320.25 17C319.017 17.2055 318.925 19.1592 318 20C316.795 21.0951 315.543 20.7075 314.5 21.75C313.134 21.0669 310.549 21.4713 309 21.25C305.985 20.8193 303.442 19.478 300.25 19.25C298.99 19.16 295.4 17.48 294.25 17.25C288.237 16.0473 281.841 17.1323 275.5 16C275.036 15.9171 274.971 15.0148 274.5 15C264.255 14.6773 253.997 14.756 243.75 15C241.504 15.0535 235.448 16.1387 233 16.25C225.271 16.6013 219.688 16.8808 212.5 18.25C211.581 18.4251 210.368 19.7328 209.5 20C207.825 20.5152 205.943 19.7986 204.25 20.25C201.83 20.8954 199.145 22.1019 196.75 23C194.701 23.7683 192.321 23.4214 190.25 24.25C184.604 26.5082 178.862 28.3189 173.5 31C172.751 31.3745 171.749 30.8755 171 31.25C161.84 35.8301 152.379 40.1766 143.5 45.25C139.347 47.6233 133.973 51.0274 130.5 54.5C127.148 57.852 121.666 60.617 117.75 63.75C109.119 70.6548 100.366 79.7492 92.75 87.25C90.5911 89.3761 88.3578 93.023 86.5 95.5C82.7587 100.488 78.6493 105.237 74.75 110.25C71.4646 114.474 68.8788 119.742 66.5 124.5C65.4413 126.617 63.4805 128.597 62.25 130.75C60.7028 133.458 59.0933 137.048 58.25 140C57.7248 141.838 56.0295 143.431 55.25 145.25C53.2097 150.011 50.8715 155.136 49.25 160C48.2374 163.038 47.2065 166.13 46.25 169C45.4558 171.383 45.9821 174.143 45 176.5C44.6106 177.435 43.4612 178.514 43.25 179.5C42.4971 183.013 44.0291 181.406 43 184.75C42.4467 186.548 41.8831 184.329 41.5 186.5C40.4912 192.216 39.9122 197.04 39.25 203C39.0782 204.546 38.017 207.958 38 209.5C37.8352 224.416 37.9316 239.333 38 254.25C38.0149 257.501 37.9418 260.764 38.25 264C38.3101 264.631 39.8706 265.95 40 266.5C40.5729 268.935 39.7594 271.547 40.25 274C41.5763 280.631 43.7308 287.76 46 294C46.3997 295.099 45.8156 296.414 46.25 297.5C50.7334 308.709 54.8419 320.184 60.25 331C62.0884 334.677 63.5001 339.25 66.5 342.25C67.3959 343.146 67.5796 345.244 68.25 346.25C71.0061 350.384 73.7381 355.738 77.5 359.5C79.5452 361.545 80.89 365.354 82.75 367.5C91.2578 377.317 99.8869 386.637 109.25 396C112.069 398.819 120.968 407 125 407C132.75 407 140.501 407.411 148.25 407.25C148.603 407.243 148.75 406.75 149 406.5Z" fill="#e7e6eb" fill-rule="nonzero" opacity="1" stroke="none"/>
<path d="M332 82.5C330.94 82.5326 329.936 82.7821 329 83.25C326.27 84.6151 322.877 89.9286 322.25 92.75C322.049 93.653 322.514 94.2292 322 95C320.62 97.0701 320.884 100.123 320.25 102.5C320.129 102.955 319.347 103.039 319.25 103.5C318.769 105.785 319.566 108.235 319 110.5C318.639 111.945 317.681 114.062 317.25 115.5C316.443 118.189 316.966 121.093 316 123.75C314.85 126.912 310.346 126.207 308 127.25C299.582 130.991 281.882 131.456 284 145.75C284.996 152.472 302.873 157.037 307.75 158.5C310.148 159.219 315.005 158.683 316 162C316.935 165.117 316.431 168.223 317.25 171.5C317.467 172.368 318.846 173.875 319 174.75C319.765 179.088 319.402 182.521 321 186.25C321.461 187.325 320.906 188.632 321.25 189.75C321.943 192.003 322.998 195.163 324.25 197.25C326.203 200.505 332.914 205.875 337 202.5C340.604 199.523 343.353 195.207 344.5 191C344.852 189.711 344.293 188.256 344.75 187C345.139 185.929 346.259 184.127 346.5 183C346.902 181.124 346.256 179.104 346.75 177.25C346.972 176.416 348.359 174.846 348.5 174C349.161 170.033 348.314 164.16 350.75 160.75C352.213 158.702 356.089 159.286 358.25 158.5C365.756 155.77 376.147 154.744 381.5 147.25C381.939 146.636 381.485 145.707 381.75 145C382.232 143.714 382.498 140.097 381.5 138.5C377.349 131.858 365.197 129.184 358.75 127.25C356.565 126.594 352.316 127.088 350.75 125C348.607 122.143 349.787 116.968 348.5 113.75C345.001 105.004 346.458 82.0551 332 82.5Z" fill="#000000" fill-rule="nonzero" opacity="1" stroke="none"/>
<path d="M439.75 190.5C437.419 192.831 439.75 202.522 439.75 206.25C439.75 206.594 439.5 206.906 439.5 207.25C439.5 217.5 439.668 227.75 439.75 238C439.789 242.937 439.315 248.399 438 253C436.648 257.734 437.256 263.318 435.5 268C433.16 274.241 432.546 282.098 429.75 288.25C425.955 296.599 422.527 305.079 418 313C415.31 317.707 412.499 322.688 409.75 327.5C408.951 328.897 408.205 331.682 406.5 332.25C406.5 334.021 403.152 337.463 402 339C397.92 344.44 393.661 349.767 389 354.75C377.043 367.531 363.766 377.989 350.25 387C341.832 392.612 334.221 397.978 324 399C323.668 399.033 323.333 398.999 323 399C271.583 399.083 220.166 399.084 168.75 399.25C167.825 399.253 167.784 399.466 167.25 400C169.31 402.06 180.598 407 183.25 407C231.583 407 279.917 407.25 328.25 407.25C331.271 407.25 334.358 405.185 336.75 403.75C339.588 402.047 343.047 400.976 346 399.5C349.144 397.928 351.841 395.329 355 393.75C372.012 385.244 387.066 369.392 400 355.5C403.7 351.526 405.96 346.341 410 342.75C411.93 341.034 418.104 343.172 419 342.5C421.413 340.69 423.474 333.782 425.5 331.25C426.449 330.064 427.285 330.965 428.25 330C426.827 328.577 423.401 328.206 423 325C422.459 320.67 424.789 318.172 426.5 314.75C429.552 308.645 432.119 301.848 434.5 295.5C436.58 289.953 439.046 282.902 439.5 277C439.642 275.152 441.224 272.906 441.5 271.25C441.705 270.017 441.242 268.723 441.5 267.5C441.706 266.522 443.44 262.555 443.5 261.75C443.768 258.129 443.953 251.595 444 247.25C444.078 240.083 444.331 232.917 444.25 225.75C444.247 225.514 443.758 225.486 443.75 225.25C443.589 220.586 444.06 215.906 443.75 211.25C443.719 210.78 442.817 210.717 442.75 210.25C442.467 208.27 442.903 206.244 442.75 204.25C442.709 203.718 441.801 203.531 441.75 203C441.608 201.507 442.018 199.976 441.75 198.5C441.666 198.036 440.847 197.961 440.75 197.5C440.431 195.984 441.043 191.793 439.75 190.5Z" fill="#905fc3" fill-rule="nonzero" opacity="1" stroke="none"/>
<path d="M283.5 62.5C281.896 62.7616 279.344 63.2938 277.75 64.25C273.213 66.9724 268.094 71.5827 266.25 76.5C259.336 94.9377 279.122 114.814 297.75 105.5C313.885 97.4327 314.264 76.2603 300.25 65.75C295.614 62.273 289.323 61.5506 283.5 62.5Z" fill="#000000" fill-rule="nonzero" opacity="1" stroke="none"/>
<path d="M333.25 116.25C330.916 118.584 332.08 122.529 331 125.5C329.402 129.895 328.645 133.355 325 137C322.848 139.152 318.892 140.009 316.25 141C314.665 141.594 312.252 140.623 310.75 141.75C308.422 143.496 312.746 144.627 314 144C315.508 145.508 317.659 144.829 319.5 145.75C323.268 147.634 326.988 149.727 329 153.75C330.735 157.22 330.083 161.266 331.25 165C331.391 165.45 332.12 165.547 332.25 166C332.52 166.945 331.584 168.417 332.75 169C333.873 169.561 334.717 165.262 334.75 165C335.264 160.89 335.768 154.003 338.75 150.75C341.468 147.785 345.857 145.744 349.5 144.75C350.461 144.488 355.224 144.079 355.5 143.25C356.199 141.154 352.96 141.192 352 141C347.844 140.169 342.383 139.155 339.25 135.5C337.19 133.097 335.293 127.325 334.75 124.25C334.291 121.648 335.241 118.241 333.25 116.25Z" fill="#ede6bb" fill-rule="nonzero" opacity="1" stroke="none"/>
<path d="M234.5 66C231.09 68.1521 228.164 69.7244 228.75 75C229.308 80.0186 236.063 84.8475 240.75 81.5C241.733 80.7982 244.586 78.4801 244.75 77C245.123 73.6455 244.14 66.7733 239.5 66C237.856 65.726 235.909 65.1105 234.5 66Z" fill="#000000" fill-rule="nonzero" opacity="1" stroke="none"/>
<path d="M285.75 203.5C283.587 204.773 282.938 204.87 280.25 207.75C280.136 207.872 280.268 208.084 280.25 208.25C279.986 210.623 279.372 211.989 280 214.5C281.674 221.194 290.071 220.429 293.75 216.75C294.313 216.187 295.667 215.168 295.75 214.25C295.893 212.673 295.813 211.082 295.75 209.5C295.673 207.564 293.41 205.199 291.75 204.25C290.33 203.439 286.818 202.871 285.75 203.5Z" fill="#000000" fill-rule="nonzero" opacity="1" stroke="none"/>
<path d="M364.75 171.5C362.745 172.388 359.748 173.893 359.5 176.75C358.863 184.079 362.235 187.966 369.75 187.25C370.382 187.19 370.956 186.827 371.5 186.5C376.466 183.52 376.976 175.236 371.75 172.25C369.827 171.151 366.533 170.71 364.75 171.5Z" fill="#000000" fill-rule="nonzero" opacity="1" stroke="none"/>
<path d="M168.25 91.5C167.213 92.5373 165.89 91.4898 164.75 92.25C163.488 93.0916 162.308 94.4425 161.25 95.5C160.14 96.6096 161.21 98.7897 160 100C161.499 102.248 161.264 107.003 165.25 107.75C172.446 109.099 176.913 104.461 176.25 97.5C176.246 97.4555 175.625 95.8828 175.5 95.75C174.372 94.5463 173.274 93.2989 172 92.25C171.341 91.7075 169.308 92.0291 168.25 91.5Z" fill="#000000" fill-rule="nonzero" opacity="1" stroke="none"/>
<path d="M285.25 77.5C282.171 80.5791 277.141 83.7718 281.25 89.25C282.495 90.9104 284.386 91.1362 285.5 92.25C289.495 90.2527 290.339 94.0851 294.5 89C298.159 84.5281 292.328 74.836 285.25 77.5Z" fill="#ccd0e8" fill-rule="nonzero" opacity="1" stroke="none"/>
</g>
</g>
</svg>
